<svg version="1.1" id="Layer_1" xmlns="http://www.w3.org/2000/svg" x="0" y="0" viewBox="0 0 2995 32.3" xml:space="preserve"><style>.st0{fill:none}</style><path class="st0" d="M3003.8 0h-8.6c5.4 15.1 8.5 23.5 8.6 23.8V0z"/><path class="st0" d="M2040.5 15.6c-384.2 23.4-496.9 21.2-853.5 0s-485 0-485 0S419.7 48.2 212.6 0H0v32.3h3003.8v-8.6c-.5.1-579.2-31.4-963.3-8.1z"/><path d="M702 15.6s128.4-21.2 485 0 469.2 23.4 853.5 0c384.1-23.3 962.8 8.1 963.3 8.1-.1-.2-3.1-8.7-8.6-23.8H212.6C419.7 48.2 702 15.6 702 15.6z" fill="#1D5297"/></svg>
